<svg xmlns="http://www.w3.org/2000/svg" xmlns:xlink="http://www.w3.org/1999/xlink" width="283.465pt" height="283.465pt" viewBox="0 0 283.465 283.465" version="1.1">
<g id="surface1">
<path style="stroke: rgb(44, 44, 44); fill-rule: nonzero; fill: rgb(44, 44, 44); fill-opacity: 1;" d="M 52.085938 216.308594 C 48.464844 219.6875 48.253906 225.363281 51.625 228.976562 C 55.011719 232.613281 60.671875 232.808594 64.300781 229.4375 C 67.9375 226.066406 68.132812 220.390625 64.761719 216.769531 C 61.390625 213.132812 55.707031 212.9375 52.085938 216.308594 "></path>
<path style="stroke: rgb(44, 44, 44); fill-rule: nonzero; fill: rgb(44, 44, 44); fill-opacity: 1;" d="M 242.007812 229.5625 C 233.027344 237.597656 221.882812 241.015625 209.59375 241.015625 C 182.75 241.015625 150.554688 224.625 123.984375 204.261719 L 141.582031 187.140625 C 152.859375 196.65625 164.507812 204.859375 175.226562 209.046875 C 173.640625 195.894531 177.882812 182.15625 188.011719 172.027344 L 243.867188 227.882812 C 243.277344 228.480469 242.648438 229.03125 242.007812 229.5625 M 70.238281 236.183594 C 66.785156 239.398438 62.40625 240.992188 58.023438 240.992188 C 53.214844 240.992188 48.421875 239.070312 44.882812 235.269531 C 38.125 228.011719 38.535156 216.652344 45.792969 209.914062 C 45.792969 209.914062 171.660156 87.78125 172.863281 87.101562 C 169.679688 74.621094 173.238281 60.839844 183.339844 51.449219 C 190.324219 44.933594 199.207031 41.722656 208.066406 41.722656 C 209.578125 41.722656 211.089844 41.84375 212.601562 42.039062 L 192.183594 61.027344 C 190.460938 62.636719 189.726562 65.027344 190.261719 67.324219 L 194.59375 86.171875 C 195.125 88.460938 196.832031 90.289062 199.070312 90.984375 L 217.558594 96.648438 C 218.195312 96.851562 218.84375 96.941406 219.488281 96.941406 C 221.128906 96.941406 222.730469 96.324219 223.976562 95.179688 L 244.335938 76.230469 C 244.863281 86.585938 241.070312 97.078125 232.890625 104.699219 C 225.875 111.214844 216.984375 114.441406 208.109375 114.441406 C 204.203125 114.441406 200.308594 113.816406 196.574219 112.582031 C 195.8125 113.730469 70.238281 236.183594 70.238281 236.183594 M 53.667969 41.222656 C 54.203125 40.582031 54.75 39.960938 55.347656 39.363281 L 111.203125 95.21875 C 102.449219 103.980469 90.988281 108.335938 79.550781 108.335938 C 77.757812 108.335938 75.960938 108.226562 74.175781 108.015625 C 78.289062 118.539062 86.285156 129.953125 95.585938 141.050781 L 78.070312 158.097656 C 48.859375 119.53125 28.335938 69.546875 53.667969 41.222656 M 198.34375 161.6875 C 195.609375 158.945312 191.882812 157.402344 188.011719 157.402344 C 184.132812 157.402344 180.414062 158.945312 177.671875 161.6875 C 170.882812 168.484375 165.953125 176.625 163.109375 185.460938 C 159.355469 182.785156 155.695312 179.84375 152.121094 176.875 L 201.65625 128.660156 C 203.789062 128.925781 205.941406 129.0625 208.109375 129.0625 C 221.03125 129.0625 233.367188 124.207031 242.84375 115.402344 C 256.808594 102.40625 262.320312 82.890625 257.238281 64.46875 C 256.613281 62.207031 255.449219 60.121094 253.851562 58.398438 L 249.460938 53.679688 L 217.78125 82.964844 L 206.5625 79.519531 L 203.929688 68.066406 L 235.628906 38.828125 L 231.023438 33.875 C 229.421875 32.160156 227.433594 30.84375 225.226562 30.058594 C 219.699219 28.09375 213.9375 27.101562 208.066406 27.101562 C 195.140625 27.101562 182.816406 31.949219 173.375 40.761719 C 162.113281 51.210938 156.316406 66.046875 157.199219 81.074219 L 106.113281 130.800781 C 103.226562 127.324219 100.375 123.769531 97.769531 120.125 C 106.636719 117.277344 114.769531 112.332031 121.542969 105.558594 C 127.25 99.84375 127.25 90.59375 121.542969 84.886719 L 65.679688 29.023438 C 62.941406 26.285156 59.222656 24.75 55.347656 24.75 L 55.324219 24.75 C 51.4375 24.75 47.71875 26.300781 44.980469 29.058594 C 44.152344 29.882812 43.371094 30.746094 42.585938 31.691406 C 30.039062 45.855469 19 71.996094 36.976562 116.398438 C 43.832031 133.324219 54.660156 151.480469 67.570312 168.316406 L 35.707031 199.332031 C 29.417969 205.25 25.789062 213.242188 25.472656 221.867188 C 25.15625 230.566406 28.253906 238.859375 34.1875 245.21875 C 40.316406 251.824219 49.003906 255.605469 58.023438 255.605469 C 66.285156 255.605469 74.167969 252.503906 80.207031 246.871094 C 80.285156 246.804688 80.359375 246.730469 80.433594 246.660156 L 113.316406 214.648438 C 151.121094 244.402344 187.453125 255.632812 209.59375 255.632812 C 226.214844 255.632812 240.328125 250.585938 251.546875 240.644531 C 252.5 239.835938 253.367188 239.0625 254.175781 238.25 C 256.929688 235.511719 258.484375 231.792969 258.492188 227.90625 C 258.5 224.027344 256.953125 220.292969 254.207031 217.542969 Z M 198.34375 161.6875 "></path>
</g>
</svg>